<svg xmlns="http://www.w3.org/2000/svg" width="415" height="736" viewBox="0 0 415 736">
    <defs>
        <linearGradient id="a" x1="100%" x2="1.309%" y1="88.251%" y2="15.715%">
            <stop offset="0%" stop-color="#7EE2FF"/>
            <stop offset="100%" stop-color="#45B0CE"/>
        </linearGradient>
    </defs>
    <g fill="none" fill-rule="evenodd" transform="translate(-5 -3)">
        <path fill="url(#a)" d="M.127.404h424.691v742.451H.127z"/>
        <path fill="#0094BD" fill-opacity=".25" d="M5.787 692.559v-92.9c36.466-18.21 17.337 126.82 69.385 129.33 52.048 2.51 32.959-82.034 77.643-83.404 44.683-1.37 61.194 102.724 87.664 65.133 26.47-37.59 54.034 5.51 60.844 6.065 6.81.554 22.03-156.172 78.845-156.172s39.622 178.027 39.622 178.027H5.788v-46.08z"/>
        <path fill="#0094BD" fill-opacity=".45" d="M5.79 698.547s0-31.78 25.872-55.952c25.872-24.174 63.404 6.102 87.17 28.746 23.767 22.644 25.809-12.647 59.005-11.613 33.196 1.035 56.75 67.397 108.374 69.26 51.624 1.865 54.116-124.191 87.724-124.936 33.608-.745 45.855 55.676 45.855 55.676v78.91h-414v-40.091z"/>
        <path fill="#0094BD" fill-opacity=".35" d="M5.79 696.804V579.711s13.754-23.272 45.44 92.71c31.687 115.983 43.253-37.727 82.891-37.144 39.638.582 55.231 94.278 108.46 94.278 53.229 0 54.912-121.262 88.52-122.007 33.608-.745 26.535 49.915 50.739 50.868 12.25.482 38.962 18.13 37.637 41.387-1.325 23.259-1.325 39.197-1.325 39.197H5.79v-42.196z"/>
        <circle cx="397.031" cy="569.031" r="6.684" fill="#45B0CE" fill-opacity=".173" stroke="#153D70" stroke-width="3.881" opacity=".158"/>
        <path fill="url(#a)" d="M.127.404h424.691v742.451H.127z" opacity=".4"/>
    </g>
</svg>
