<svg xmlns="http://www.w3.org/2000/svg" width="213" height="94" viewBox="0 0 213 94">
    <g fill="#FFF" fill-rule="evenodd">
        <path d="M17 31.37v25.198h19.185v-4.931H22.507v-5.291h11.879v-4.932H22.507v-5.111h13.499V31.37zM40.22 37.275v4.427h9.647l-9.97 11.015v3.85H56.67v-4.426H46.664L56.67 41.126v-3.851zM59.336 47.03v-.072c0-5.508 4.21-10.043 10.115-10.043 3.635 0 5.903 1.223 7.703 3.24l-3.348 3.6c-1.223-1.297-2.448-2.125-4.391-2.125-2.736 0-4.68 2.412-4.68 5.255v.073c0 2.951 1.908 5.327 4.896 5.327 1.835 0 3.096-.792 4.427-2.052l3.204 3.24C75.39 55.523 73.23 57 69.379 57c-5.795 0-10.043-4.463-10.043-9.97M94.83 47.03v-.072c0-2.844-2.052-5.328-5.075-5.328-3.132 0-5.004 2.412-5.004 5.255v.073c0 2.842 2.052 5.327 5.076 5.327 3.13 0 5.003-2.412 5.003-5.256m-15.478 0v-.07c0-5.545 4.463-10.044 10.475-10.044 5.975 0 10.402 4.427 10.402 9.97v.073c0 5.543-4.463 10.042-10.474 10.042-5.975 0-10.403-4.427-10.403-9.97M104.443 56.568h5.471V37.274h-5.471v19.294zm-.144-21.417h5.759v-4.859h-5.759v4.859zM115.063 37.274h5.471v2.736c1.26-1.62 2.88-3.095 5.651-3.095 4.14 0 6.552 2.735 6.552 7.163v12.49h-5.471V45.805c0-2.592-1.225-3.924-3.313-3.924-2.087 0-3.419 1.332-3.419 3.924v10.763h-5.472V37.274zM148.001 44.078c2.771 0 4.391-1.656 4.391-3.815v-.073c0-2.483-1.728-3.815-4.499-3.815h-4.284v7.703h4.392zm-9.936-12.707h10.295c6.012 0 9.648 3.564 9.648 8.711v.072c0 5.831-4.536 8.856-10.188 8.856h-4.211v7.558h-5.544V31.371zM161.538 37.274h5.472v3.888c1.115-2.663 2.915-4.392 6.155-4.247v5.722h-.288c-3.636 0-5.867 2.197-5.867 6.804v7.127h-5.472V37.274zM190.588 47.03v-.072c0-2.844-2.052-5.328-5.075-5.328-3.132 0-5.003 2.412-5.003 5.255v.073c0 2.842 2.052 5.327 5.075 5.327 3.132 0 5.003-2.412 5.003-5.256m-15.478 0v-.07c0-5.545 4.463-10.044 10.475-10.044 5.976 0 10.402 4.427 10.402 9.97v.073c0 5.543-4.462 10.042-10.474 10.042-5.975 0-10.403-4.427-10.403-9.97"/>
    </g>
</svg>
