<svg width="207.701" height="88.201" viewBox="0 0 207.701 88.201" xmlns="http://www.w3.org/2000/svg"><g id="svgGroup" stroke-linecap="round" fill-rule="evenodd" font-size="9pt" stroke="#000" stroke-width="0.25mm" fill="none" style="stroke:#000;stroke-width:0.25mm;fill:none"><path d="M 43.9 58.8 L 43.9 71.2 L 22.7 71.2 A 49.11 49.11 0 0 1 16.635 70.852 Q 10.061 70.031 6.259 67.272 A 13.245 13.245 0 0 1 5.35 66.55 A 14.039 14.039 0 0 1 1.428 60.687 Q 0 56.824 0 51.4 L 0 0 L 13.9 0 L 13.9 51.4 Q 13.9 55.166 15.428 56.842 A 3.924 3.924 0 0 0 15.8 57.2 Q 17.7 58.8 22.7 58.8 L 43.9 58.8 Z" id="0" vector-effect="non-scaling-stroke"/><path d="M 97.49 50.645 A 76.384 76.384 0 0 0 97.9 42.4 A 62.65 62.65 0 0 0 97.464 34.749 Q 96.969 30.739 95.914 27.468 A 24.036 24.036 0 0 0 92.55 20.65 A 15.587 15.587 0 0 0 86.49 15.732 Q 83.729 14.423 80.162 13.819 A 40.273 40.273 0 0 0 73.45 13.3 A 40.142 40.142 0 0 0 70.199 13.427 Q 66.502 13.728 63.529 14.74 A 16.442 16.442 0 0 0 54.5 21.7 A 26.111 26.111 0 0 0 51.891 27.327 Q 50.78 30.659 50.259 34.707 A 60.438 60.438 0 0 0 49.8 42.4 Q 49.8 51.102 51.591 57.367 A 27.629 27.629 0 0 0 54.5 64.2 A 15.092 15.092 0 0 0 60.514 69.868 Q 63.29 71.346 66.952 72.025 A 37.691 37.691 0 0 0 73.8 72.6 Q 85 72.6 90.9 67.2 A 14.826 14.826 0 0 0 93.6 63.905 Q 96.571 59.064 97.49 50.645 Z M 84.9 45.4 L 84.9 40.2 Q 84.9 33.166 82.958 29.294 A 11.489 11.489 0 0 0 82.75 28.9 Q 80.6 25 73.8 25 A 11.466 11.466 0 0 0 68.733 26.044 Q 62.8 28.931 62.8 39.8 L 62.8 45 A 34.025 34.025 0 0 0 63.22 50.604 Q 64.89 60.549 73.206 60.888 A 14.613 14.613 0 0 0 73.8 60.9 Q 80.9 60.9 83.1 55.6 Q 84.9 51.4 84.9 45.4 Z" id="1" vector-effect="non-scaling-stroke"/><path d="M 122.6 14.5 L 136.3 14.5 L 149.3 13.7 L 149.3 68.6 A 26.985 26.985 0 0 1 148.724 74.355 Q 147.913 78.069 145.961 80.833 A 15.38 15.38 0 0 1 143.95 83.15 Q 139.57 87.285 131.738 88.034 A 38.217 38.217 0 0 1 128.1 88.2 A 34.687 34.687 0 0 1 120.723 87.449 A 26.913 26.913 0 0 1 113.9 85 Q 110.7 83.4 108.8 80.2 A 13.377 13.377 0 0 1 107.127 75.499 A 17.815 17.815 0 0 1 106.9 72.6 L 119 72 A 6.145 6.145 0 0 0 119.176 73.521 A 3.9 3.9 0 0 0 121 76 A 6.221 6.221 0 0 0 122.417 76.6 Q 123.873 77.036 126.081 77.155 A 32.904 32.904 0 0 0 127.85 77.2 Q 132.363 77.2 134.192 75.122 A 4.501 4.501 0 0 0 134.45 74.8 Q 135.752 73.015 136.085 70.069 A 19.312 19.312 0 0 0 136.2 67.9 L 136.7 59.3 L 122.7 66.8 Q 115.556 66.8 111.306 63.79 A 13.071 13.071 0 0 1 107.2 59 A 30.195 30.195 0 0 1 104.445 51.06 Q 103.6 46.944 103.6 42.1 Q 103.6 30.2 105.4 25.3 A 21.334 21.334 0 0 1 106.896 21.942 Q 107.926 20.105 109.238 18.799 A 11.163 11.163 0 0 1 110.8 17.5 A 16.617 16.617 0 0 1 115.817 15.298 Q 118.836 14.5 122.6 14.5 Z M 126.4 53.1 L 136.3 48 L 136.3 26.2 L 126.4 26.2 A 12.771 12.771 0 0 0 123.545 26.496 Q 120.214 27.261 118.7 30 A 14.426 14.426 0 0 0 117.421 33.272 Q 116.985 34.907 116.78 36.873 A 36.151 36.151 0 0 0 116.6 40.6 Q 116.6 46.149 118.032 49.068 A 7.282 7.282 0 0 0 118.75 50.25 A 6.354 6.354 0 0 0 121.502 52.296 Q 122.613 52.748 124.022 52.946 A 17.134 17.134 0 0 0 126.4 53.1 Z" id="2" vector-effect="non-scaling-stroke"/><path d="M 207.29 50.645 A 76.384 76.384 0 0 0 207.7 42.4 A 62.65 62.65 0 0 0 207.264 34.749 Q 206.769 30.739 205.714 27.468 A 24.036 24.036 0 0 0 202.35 20.65 A 15.587 15.587 0 0 0 196.29 15.732 Q 193.529 14.423 189.962 13.819 A 40.273 40.273 0 0 0 183.25 13.3 A 40.142 40.142 0 0 0 179.999 13.427 Q 176.302 13.728 173.329 14.74 A 16.442 16.442 0 0 0 164.3 21.7 A 26.111 26.111 0 0 0 161.691 27.327 Q 160.58 30.659 160.059 34.707 A 60.438 60.438 0 0 0 159.6 42.4 Q 159.6 51.102 161.391 57.367 A 27.629 27.629 0 0 0 164.3 64.2 A 15.092 15.092 0 0 0 170.314 69.868 Q 173.09 71.346 176.752 72.025 A 37.691 37.691 0 0 0 183.6 72.6 Q 194.8 72.6 200.7 67.2 A 14.826 14.826 0 0 0 203.4 63.905 Q 206.371 59.064 207.29 50.645 Z M 194.7 45.4 L 194.7 40.2 Q 194.7 33.166 192.758 29.294 A 11.489 11.489 0 0 0 192.55 28.9 Q 190.4 25 183.6 25 A 11.466 11.466 0 0 0 178.533 26.044 Q 172.6 28.931 172.6 39.8 L 172.6 45 A 34.025 34.025 0 0 0 173.02 50.604 Q 174.69 60.549 183.006 60.888 A 14.613 14.613 0 0 0 183.6 60.9 Q 190.7 60.9 192.9 55.6 Q 194.7 51.4 194.7 45.4 Z" id="3" vector-effect="non-scaling-stroke"/></g></svg>